G04 DipTrace 3.2.0.1*
G04 Bottom.gbr*
%MOMM*%
G04 #@! TF.FileFunction,Copper,L2,Bot*
G04 #@! TF.Part,Single*
%ADD21C,0.48567*%
%ADD22C,0.5*%
G04 #@! TA.AperFunction,Conductor*
%ADD13C,1.0*%
%ADD14C,0.1*%
G04 #@! TA.AperFunction,ComponentPad*
%ADD15C,2.0*%
%ADD17R,2.75X1.0*%
%ADD18R,6.15X5.55*%
G04 #@! TA.AperFunction,ComponentPad*
%ADD19C,2.0*%
G04 #@! TA.AperFunction,ViaPad*
%ADD20C,1.016*%
%ADD35C,0.27451*%
%FSLAX35Y35*%
G04*
G71*
G90*
G75*
G01*
G04 Bottom*
%LPD*%
X5953800Y2143800D2*
D13*
X4683800D1*
Y2397800D1*
Y2651800D1*
X3159800Y1687800D2*
X2865587D1*
X2663587Y1889800D1*
X2651800D1*
Y2143800D1*
X2905800Y2397800D1*
X3159800D1*
X1381800Y1635800D2*
X1635800Y1889800D1*
X2651800D1*
X2905800Y2651800D2*
X2651800Y2397800D1*
X2397800D1*
X2143800Y2143800D1*
X5953800Y1381800D2*
X5699800D1*
X5445800Y1635800D1*
X4109800D1*
X3829800Y1915800D1*
X2905800Y2143800D2*
X3159800D1*
X1381800Y1127800D2*
X1635800Y1381800D1*
Y1635800D1*
X2143800D1*
Y1381800D1*
X4429800D1*
X3921800Y1127800D2*
Y1381800D1*
X4429800D1*
Y2143800D2*
Y2397800D1*
X4175800D1*
Y2651800D1*
X5445800Y1889800D2*
X4429800D1*
Y2143800D1*
X5953800Y2397800D2*
X5699800D1*
X5445800Y2651800D1*
X5953800Y1635800D2*
X5699800D1*
X5445800Y1889800D1*
X1000800Y2778800D2*
D14*
Y1000800D1*
X6207800Y2778800D2*
X1000800D1*
X6207800D2*
Y1000800D1*
X1000800D1*
D20*
X4683800Y2397800D3*
D15*
X5191800Y1381800D3*
Y2397800D3*
X1889800Y1381800D3*
Y2397800D3*
X5445800Y2651800D3*
Y1889800D3*
X4683800Y2397800D3*
X3159800D3*
D17*
Y2143800D3*
Y1687800D3*
D18*
X3829800Y1915800D3*
D15*
X2905800Y2143800D3*
D19*
X2143800D3*
D15*
X4429800Y1381800D3*
D19*
Y2143800D3*
X1381800Y1635800D3*
Y1127800D3*
X4937800D3*
X4683800D3*
X4429800D3*
X4175800D3*
X3921800D3*
X3667800D3*
X3413800D3*
X3159800D3*
X2905800D3*
X2651800D3*
X2397800D3*
X2143800D3*
Y2651800D3*
X2397800D3*
X2651800D3*
X2905800D3*
X3159800D3*
X3413800D3*
X3667800D3*
X3921800D3*
X4175800D3*
X4429800D3*
X4683800D3*
X4937800D3*
X5953800Y2397800D3*
Y2143800D3*
Y1635800D3*
Y1381800D3*
X5956570Y2718495D2*
D35*
Y2539841D1*
X6130575Y2718495D2*
Y2539841D1*
X6011472Y2718495D1*
Y2539841D1*
X5697661Y1257995D2*
X5680563Y1249544D1*
X5663660Y1232445D1*
X5655013Y1215543D1*
X5646561Y1189993D1*
Y1147344D1*
X5655013Y1121990D1*
X5663660Y1104891D1*
X5680563Y1087989D1*
X5697661Y1079341D1*
X5731663D1*
X5748565Y1087989D1*
X5765664Y1104891D1*
X5774115Y1121990D1*
X5782566Y1147344D1*
Y1189993D1*
X5774115Y1215543D1*
X5765664Y1232445D1*
X5748565Y1249544D1*
X5731663Y1257995D1*
X5697661D1*
X5837468D2*
Y1130441D1*
X5845919Y1104891D1*
X5863018Y1087989D1*
X5888568Y1079341D1*
X5905470D1*
X5931020Y1087989D1*
X5948119Y1104891D1*
X5956570Y1130441D1*
Y1257995D1*
X6071023D2*
Y1079341D1*
X6011472Y1257995D2*
X6130575D1*
X5799925Y2705622D2*
Y2552518D1*
X5723471Y2628972D2*
X5876575D1*
X5799925Y1943622D2*
Y1790518D1*
X5723471Y1866972D2*
X5876575D1*
G04 Bottom Clear*
%LPC*%
D21*
X4683800Y2397800D3*
D22*
X5191800Y1381800D3*
Y2397800D3*
X1889800Y1381800D3*
Y2397800D3*
X5445800Y2651800D3*
Y1889800D3*
X4683800Y2397800D3*
X3159800D3*
X2905800Y2143800D3*
X2143800D3*
X4429800Y1381800D3*
Y2143800D3*
X1381800Y1635800D3*
Y1127800D3*
X4937800D3*
X4683800D3*
X4429800D3*
X4175800D3*
X3921800D3*
X3667800D3*
X3413800D3*
X3159800D3*
X2905800D3*
X2651800D3*
X2397800D3*
X2143800D3*
Y2651800D3*
X2397800D3*
X2651800D3*
X2905800D3*
X3159800D3*
X3413800D3*
X3667800D3*
X3921800D3*
X4175800D3*
X4429800D3*
X4683800D3*
X4937800D3*
X5953800Y2397800D3*
Y2143800D3*
Y1635800D3*
Y1381800D3*
M02*
